<svg width="100" height="96" viewBox="0 0 100 96" fill="none" xmlns="http://www.w3.org/2000/svg">
<path d="M98.1681 2.66871C95.7282 0.22957 91.7731 0.22957 89.3332 2.66871L69.4889 22.513C61.4994 15.3338 49.5989 14.6571 40.8471 20.8844C35.6957 24.7186 29.9903 27.7455 23.927 29.8609L16.475 32.0437C4.33246 35.6007 -2.62745 48.3279 0.929729 60.4705C1.20016 61.3937 1.52838 62.2987 1.91265 63.1804C6.44572 74.4192 14.757 83.7247 25.4143 89.4938C33.8169 93.4385 43.0227 95.3724 52.3024 95.1422H52.5648C55.6925 95.1431 58.7357 94.1286 61.2373 92.2514C74.3593 82.8271 83.3296 68.6941 86.2715 52.8084C87.5756 45.3225 85.1183 37.6735 79.6984 32.3477L78.4988 31.1814L98.1806 11.4955C100.611 9.05301 100.605 5.10415 98.1681 2.66871ZM53.6809 82.2917C53.3381 82.537 52.9233 82.6616 52.5022 82.6457C48.1253 82.6444 43.7598 82.1992 39.4725 81.317C45.0496 77.8282 49.8525 73.2336 53.5851 67.8168L55.6429 64.7886C57.6407 61.9749 56.9792 58.0745 54.1656 56.0766C51.3519 54.0788 47.4515 54.7403 45.4536 57.5539C45.4052 57.6221 45.3581 57.6912 45.3124 57.7613L43.2546 60.7813C39.8437 65.765 35.2247 69.8022 29.8294 72.5154L25.5057 74.6857C23.0778 72.7152 20.9037 70.4514 19.0325 67.9461C24.8109 65.5891 30.0795 62.138 34.5489 57.7824C36.9783 55.3317 36.9609 51.3756 34.5103 48.9462C32.1088 46.5659 28.2496 46.5276 25.8015 48.8599C22.1371 52.4163 17.7561 55.1501 12.9511 56.8785C11.3388 51.4082 14.4666 45.6665 19.9369 44.0545C19.9576 44.0484 19.9783 44.0424 19.999 44.0363L27.4428 41.8495C33.8386 39.7178 39.9009 36.6929 45.4501 32.8645L71.8091 58.5527C68.2056 68.0615 61.9053 76.3116 53.6809 82.2917Z" fill="#1C1B1F"/>
</svg>
